<?xml version="1.0" encoding="utf-8"?>
<!-- Generator: Adobe Illustrator 25.1.0, SVG Export Plug-In . SVG Version: 6.00 Build 0)  -->
<svg version="1.1" xmlns="http://www.w3.org/2000/svg" xmlns:xlink="http://www.w3.org/1999/xlink" x="0px" y="0px"
	 viewBox="0 0 165 60" style="enable-background:new 0 0 165 60;" xml:space="preserve">
<style type="text/css">
	.st0{fill:#FF4D00;}
	.st1{fill:url(#SVGID_1_);}
	.st2{fill:url(#SVGID_2_);}
	.st3{opacity:0.2;}
	.st4{fill:url(#SVGID_3_);}
	.st5{opacity:0.75;fill:url(#SVGID_4_);}
	.st6{fill:#000066;stroke:#000066;stroke-width:0.6618;stroke-miterlimit:10;}
	.st7{display:none;}
	.st8{display:inline;}
	.st9{fill:url(#SVGID_5_);}
	.st10{fill:url(#SVGID_6_);}
	.st11{fill:url(#SVGID_7_);}
	.st12{opacity:0.75;fill:url(#SVGID_8_);}
</style>
<g id="Capa_1">
	<g>
		<g>
			<path class="st0" d="M51.2,40.9v0.9h-1.5v4.1h-1v-4.1h-1.5v-0.9H51.2z"/>
			<path class="st0" d="M54.6,45.9v-5h1v1.9h1.9v-1.9h1v5h-1v-2.2h-1.9v2.2H54.6z"/>
			<path class="st0" d="M66,41.8h-2.6v1.1h2.4v0.9h-2.4V45h2.8v0.9h-3.8v-5H66V41.8z"/>
			<path class="st0" d="M78,40.9v0.9h-1.5v4.1h-1v-4.1H74v-0.9H78z"/>
			<path class="st0" d="M85.1,45.5c-0.4,0.4-0.9,0.6-1.6,0.6c-0.7,0-1.3-0.2-1.6-0.6c-0.5-0.5-0.8-1.2-0.8-2.1
				c0-0.9,0.3-1.6,0.8-2.1c0.4-0.4,0.9-0.6,1.6-0.6c0.7,0,1.3,0.2,1.6,0.6c0.5,0.5,0.8,1.1,0.8,2.1C85.9,44.3,85.6,45,85.1,45.5z
				 M84.5,44.7c0.2-0.3,0.4-0.7,0.4-1.3c0-0.6-0.1-1-0.4-1.3c-0.2-0.3-0.6-0.5-1-0.5s-0.7,0.2-1,0.5c-0.2,0.3-0.4,0.7-0.4,1.3
				c0,0.6,0.1,1,0.4,1.3c0.2,0.3,0.6,0.5,1,0.5S84.2,45,84.5,44.7z"/>
			<path class="st0" d="M89.4,40.9h1.1V44c0,0.3,0,0.6,0.1,0.7c0.1,0.3,0.4,0.4,0.8,0.4c0.4,0,0.7-0.1,0.8-0.4
				c0.1-0.2,0.1-0.4,0.1-0.7v-3.1h1.1V44c0,0.5-0.1,0.9-0.2,1.2c-0.3,0.5-0.9,0.8-1.7,0.8s-1.4-0.3-1.8-0.8
				c-0.2-0.3-0.2-0.7-0.2-1.2V40.9z"/>
			<path class="st0" d="M100.4,41.1c0.2,0.1,0.3,0.2,0.5,0.3c0.1,0.1,0.2,0.3,0.3,0.4c0.1,0.2,0.1,0.3,0.1,0.5
				c0,0.2-0.1,0.5-0.2,0.7c-0.1,0.2-0.3,0.4-0.6,0.5c0.2,0.1,0.4,0.2,0.5,0.4c0.1,0.2,0.1,0.4,0.1,0.8v0.3c0,0.2,0,0.4,0,0.5
				c0,0.1,0.1,0.2,0.2,0.3v0.1h-1.1c0-0.1-0.1-0.2-0.1-0.3c0-0.1,0-0.3,0-0.4l0-0.5c0-0.3-0.1-0.5-0.2-0.6C99.8,44,99.6,44,99.3,44
				h-1v2h-1v-5h2.4C100,41,100.2,41,100.4,41.1z M98.2,41.8v1.3h1.1c0.2,0,0.4,0,0.5-0.1c0.2-0.1,0.3-0.3,0.3-0.6
				c0-0.3-0.1-0.5-0.3-0.6c-0.1-0.1-0.3-0.1-0.5-0.1H98.2z"/>
			<path class="st0" d="M113.3,41.8h-2.6v1.1h2.4v0.9h-2.4V45h2.8v0.9h-3.8v-5h3.7V41.8z"/>
			<path class="st0" d="M117.8,45.9h-1.2l1.6-2.5l-1.5-2.4h1.2l0.9,1.6l0.9-1.6h1.2l-1.5,2.4l1.6,2.6h-1.3l-0.9-1.7L117.8,45.9z"/>
			<path class="st0" d="M127.8,43.8c-0.3,0.2-0.7,0.4-1.2,0.4h-1v1.8h-1v-5h2.1c0.5,0,0.9,0.1,1.2,0.4c0.3,0.3,0.4,0.7,0.4,1.2
				C128.2,43.1,128,43.5,127.8,43.8z M127,42c-0.1-0.1-0.3-0.2-0.6-0.2h-0.9v1.5h0.9c0.2,0,0.4-0.1,0.6-0.2c0.1-0.1,0.2-0.3,0.2-0.6
				C127.2,42.3,127.1,42.1,127,42z"/>
			<path class="st0" d="M135.5,41.8h-2.6v1.1h2.4v0.9h-2.4V45h2.8v0.9h-3.8v-5h3.7V41.8z"/>
			<path class="st0" d="M142.4,41.1c0.2,0.1,0.3,0.2,0.5,0.3c0.1,0.1,0.2,0.3,0.3,0.4c0.1,0.2,0.1,0.3,0.1,0.5
				c0,0.2-0.1,0.5-0.2,0.7c-0.1,0.2-0.3,0.4-0.6,0.5c0.2,0.1,0.4,0.2,0.5,0.4c0.1,0.2,0.1,0.4,0.1,0.8v0.3c0,0.2,0,0.4,0,0.5
				c0,0.1,0.1,0.2,0.2,0.3v0.1h-1.1c0-0.1-0.1-0.2-0.1-0.3c0-0.1,0-0.3,0-0.4l0-0.5c0-0.3-0.1-0.5-0.2-0.6c-0.1-0.1-0.3-0.2-0.6-0.2
				h-1v2h-1v-5h2.4C141.9,41,142.2,41,142.4,41.1z M140.2,41.8v1.3h1.1c0.2,0,0.4,0,0.5-0.1c0.2-0.1,0.3-0.3,0.3-0.6
				c0-0.3-0.1-0.5-0.3-0.6c-0.1-0.1-0.3-0.1-0.5-0.1H140.2z"/>
			<path class="st0" d="M150.6,40.9v0.9h-1.5v4.1h-1v-4.1h-1.5v-0.9H150.6z"/>
			<path class="st0" d="M154.7,44.4c0,0.2,0.1,0.4,0.2,0.5c0.2,0.2,0.5,0.3,0.9,0.3c0.3,0,0.5,0,0.6-0.1c0.3-0.1,0.4-0.3,0.4-0.6
				c0-0.2-0.1-0.3-0.2-0.4c-0.1-0.1-0.4-0.2-0.7-0.2l-0.5-0.1c-0.5-0.1-0.9-0.2-1.1-0.4c-0.3-0.2-0.5-0.6-0.5-1.1
				c0-0.4,0.2-0.8,0.5-1.1c0.3-0.3,0.8-0.4,1.4-0.4c0.5,0,1,0.1,1.4,0.4c0.4,0.3,0.6,0.7,0.6,1.2h-1c0-0.3-0.2-0.5-0.4-0.6
				c-0.2-0.1-0.4-0.1-0.6-0.1c-0.3,0-0.5,0.1-0.7,0.2c-0.2,0.1-0.2,0.3-0.2,0.5c0,0.2,0.1,0.3,0.2,0.4c0.1,0.1,0.3,0.1,0.7,0.2
				l0.9,0.2c0.4,0.1,0.7,0.2,0.9,0.4c0.3,0.2,0.4,0.6,0.4,1c0,0.5-0.2,0.8-0.5,1.1c-0.4,0.3-0.8,0.5-1.5,0.5c-0.7,0-1.2-0.1-1.5-0.4
				c-0.4-0.3-0.6-0.7-0.6-1.2H154.7z"/>
		</g>
		<linearGradient id="SVGID_1_" gradientUnits="userSpaceOnUse" x1="-20.2022" y1="26.8377" x2="22.451" y2="31.8559">
			<stop  offset="8.240920e-03" style="stop-color:#003399"/>
			<stop  offset="0.9059" style="stop-color:#000033"/>
		</linearGradient>
		<path class="st1" d="M0,46.3c0,2.1,1.7,3.8,3.8,3.8h14.8v0c10.1-0.1,18.2-8.8,18.2-19.5c0-10.7-8.1-19.4-18.2-19.5v0H3.8
			c-2.1,0-3.8,1.7-3.8,3.8V46.3z"/>
		<linearGradient id="SVGID_2_" gradientUnits="userSpaceOnUse" x1="3.6533" y1="28.8094" x2="36.8048" y2="22.0105">
			<stop  offset="0.2" style="stop-color:#03FCFC;stop-opacity:0.8"/>
			<stop  offset="0.3155" style="stop-color:#04F8F7;stop-opacity:0.8289"/>
			<stop  offset="0.4618" style="stop-color:#06EDE7;stop-opacity:0.8655"/>
			<stop  offset="0.6248" style="stop-color:#0BDACD;stop-opacity:0.9062"/>
			<stop  offset="0.7999" style="stop-color:#11C0A9;stop-opacity:0.95"/>
			<stop  offset="0.9828" style="stop-color:#189F7B;stop-opacity:0.9957"/>
			<stop  offset="1" style="stop-color:#199C76"/>
		</linearGradient>
		<path class="st2" d="M19.7,39.8c7.3,0,13.7-4,17-10c0,0,0-0.1,0-0.1c-0.4-10.3-8.4-18.5-18.2-18.6v0h-0.4
			c2.9,2.8,4.4,6.9,3.4,11.4c-1,4.5-4.5,8-9,9c-3.4,0.8-6.6,0.1-9.2-1.6C3.2,29.7,2.8,30,3,30.4C6.4,36,12.6,39.8,19.7,39.8z"/>
		<g class="st3">
			<linearGradient id="SVGID_3_" gradientUnits="userSpaceOnUse" x1="3.929" y1="24.3319" x2="31.6404" y2="36.2487">
				<stop  offset="0" style="stop-color:#112233"/>
				<stop  offset="1" style="stop-color:#191163"/>
			</linearGradient>
			<path class="st4" d="M18.6,11.1L18.6,11.1l-3.7,0c8.9,2,15.6,10,15.6,19.5c0,9.5-6.7,17.5-15.6,19.5h3.7v0
				c10.1-0.1,18.2-8.8,18.2-19.5C36.8,19.9,28.6,11.2,18.6,11.1z"/>
		</g>
		<linearGradient id="SVGID_4_" gradientUnits="userSpaceOnUse" x1="14.2047" y1="21.4443" x2="31.4708" y2="17.9033">
			<stop  offset="0.2" style="stop-color:#03FCFC;stop-opacity:0.8"/>
			<stop  offset="0.3155" style="stop-color:#04F8F7;stop-opacity:0.8289"/>
			<stop  offset="0.4618" style="stop-color:#06EDE7;stop-opacity:0.8655"/>
			<stop  offset="0.6248" style="stop-color:#0BDACD;stop-opacity:0.9062"/>
			<stop  offset="0.7999" style="stop-color:#11C0A9;stop-opacity:0.95"/>
			<stop  offset="0.9828" style="stop-color:#189F7B;stop-opacity:0.9957"/>
			<stop  offset="1" style="stop-color:#199C76"/>
		</linearGradient>
		<path class="st5" d="M15.6,30.5c11-1.4,14.2-8.5,14.8-14.8c-3.2-2.8-7.2-4.5-11.7-4.6v0h-0.4c2.9,2.8,4.4,6.9,3.4,11.4
			C21,26,18.7,28.9,15.6,30.5z"/>
		<path class="st0" d="M164.7,36.9H45.3c-0.2,0-0.3-0.1-0.3-0.3v-0.1c0-0.2,0.1-0.3,0.3-0.3h119.4c0.2,0,0.3,0.1,0.3,0.3v0.1
			C165,36.8,164.9,36.9,164.7,36.9z"/>
		<g>
			<path class="st6" d="M47.5,16.6c1.3-0.2,2.8-0.3,4.5-0.3c3,0,5.2,0.7,6.6,2c1.4,1.3,2.3,3.2,2.3,5.8c0,2.7-0.8,4.8-2.3,6.3
				c-1.5,1.5-4,2.3-7.2,2.3c-1.5,0-2.8-0.1-3.8-0.2V16.6z M49.6,31c0.5,0.1,1.3,0.1,2.1,0.1c4.5,0,6.9-2.5,6.9-6.9
				c0-3.8-2.2-6.3-6.6-6.3c-1.1,0-1.9,0.1-2.5,0.2V31z"/>
			<path class="st6" d="M67.7,17.6v3.4h3v1.6h-3v6.3c0,1.5,0.4,2.3,1.6,2.3c0.6,0,1-0.1,1.2-0.1l0.1,1.6c-0.4,0.2-1.1,0.3-1.9,0.3
				c-1,0-1.8-0.3-2.3-0.9c-0.6-0.6-0.8-1.7-0.8-3v-6.4h-1.8v-1.6h1.8v-2.8L67.7,17.6z"/>
			<path class="st6" d="M74.4,24.6c0-1.4,0-2.6-0.1-3.6h1.9l0.1,2.3h0.1c0.5-1.6,1.8-2.6,3.2-2.6c0.2,0,0.4,0,0.6,0.1v2
				c-0.2,0-0.4-0.1-0.7-0.1c-1.5,0-2.6,1.1-2.9,2.7c0,0.3-0.1,0.6-0.1,1v6.2h-2.1V24.6z"/>
			<path class="st6" d="M89.8,32.6l-0.2-1.5h-0.1c-0.7,0.9-1.9,1.7-3.6,1.7c-2.4,0-3.6-1.7-3.6-3.4c0-2.8,2.5-4.4,7-4.3V25
				c0-1-0.3-2.7-2.7-2.7c-1.1,0-2.2,0.3-3,0.9l-0.5-1.4c1-0.6,2.4-1,3.8-1c3.6,0,4.4,2.4,4.4,4.8v4.4c0,1,0,2,0.2,2.8H89.8z
				 M89.5,26.7c-2.3,0-5,0.4-5,2.6c0,1.4,0.9,2,2,2c1.5,0,2.5-1,2.8-2c0.1-0.2,0.1-0.5,0.1-0.7V26.7z"/>
			<path class="st6" d="M96.8,20.9l2.3,6.6c0.4,1.1,0.7,2,0.9,3h0.1c0.3-1,0.6-1.9,1-3l2.3-6.6h2.2L101,32.6h-2l-4.4-11.7H96.8z"/>
			<path class="st6" d="M109.8,27.2c0,2.9,1.9,4.1,4,4.1c1.5,0,2.4-0.3,3.2-0.6l0.4,1.5c-0.7,0.3-2,0.7-3.9,0.7
				c-3.6,0-5.8-2.4-5.8-5.9c0-3.5,2.1-6.3,5.5-6.3c3.8,0,4.8,3.4,4.8,5.5c0,0.4,0,0.8-0.1,1H109.8z M116,25.7c0-1.4-0.6-3.5-2.9-3.5
				c-2.2,0-3.1,2-3.3,3.5H116z"/>
			<path class="st6" d="M121.9,15.5h2.1v17.2h-2.1V15.5z"/>
			<path class="st6" d="M128.8,15.5h2.1v17.2h-2.1V15.5z"/>
			<path class="st6" d="M136.9,27.2c0,2.9,1.9,4.1,4,4.1c1.5,0,2.4-0.3,3.2-0.6l0.4,1.5c-0.7,0.3-2,0.7-3.9,0.7
				c-3.6,0-5.8-2.4-5.8-5.9c0-3.5,2.1-6.3,5.5-6.3c3.8,0,4.8,3.4,4.8,5.5c0,0.4,0,0.8-0.1,1H136.9z M143.2,25.7
				c0-1.4-0.6-3.5-2.9-3.5c-2.2,0-3.1,2-3.3,3.5H143.2z"/>
			<path class="st6" d="M149.1,24.6c0-1.4,0-2.6-0.1-3.6h1.9l0.1,2.3h0.1c0.5-1.6,1.8-2.6,3.2-2.6c0.2,0,0.4,0,0.6,0.1v2
				c-0.2,0-0.4-0.1-0.7-0.1c-1.5,0-2.6,1.1-2.9,2.7c0,0.3-0.1,0.6-0.1,1v6.2h-2.1V24.6z"/>
		</g>
	</g>
</g>
<g id="Capa_2" class="st7">
	<g class="st8">
		<g>
			<g>
				<path class="st0" d="M48.4,40.5h0.8l1.2,3.3h-0.7l-0.2-0.7h-1.2l-0.2,0.7h-0.7L48.4,40.5z M48.3,42.5h0.8l-0.4-1.3L48.3,42.5z"
					/>
				<path class="st0" d="M52.5,40.5h2.3V41h-1.7v0.8h1.5v0.6h-1.5v1.4h-0.7V40.5z"/>
				<path class="st0" d="M57.8,43.7h-0.7v-3.3h0.7V43.7z"/>
				<path class="st0" d="M60.2,40.5h0.7v2.7h1.6v0.6h-2.3V40.5z"/>
				<path class="st0" d="M64.8,40.5h0.7v2.7h1.6v0.6h-2.3V40.5z"/>
				<path class="st0" d="M70,43.7h-0.7v-3.3H70V43.7z"/>
				<path class="st0" d="M73.4,40.5h0.8l1.2,3.3h-0.7l-0.2-0.7h-1.2L73,43.7h-0.7L73.4,40.5z M73.4,42.5h0.8l-0.4-1.3L73.4,42.5z"/>
				<path class="st0" d="M79.7,40.5V41h-1v2.7H78V41h-1v-0.6H79.7z"/>
				<path class="st0" d="M84.3,41h-1.7v0.7h1.6v0.6h-1.6v0.8h1.8v0.6h-2.5v-3.3h2.4V41z"/>
				<path class="st0" d="M92,42.3c-0.2,0.2-0.5,0.2-0.8,0.2h-0.7v1.2h-0.7v-3.3h1.4c0.3,0,0.6,0.1,0.8,0.3c0.2,0.2,0.3,0.4,0.3,0.8
					C92.3,41.9,92.2,42.2,92,42.3z M91.5,41.1c-0.1-0.1-0.2-0.1-0.4-0.1h-0.6v1h0.6c0.2,0,0.3,0,0.4-0.1c0.1-0.1,0.1-0.2,0.1-0.4
					S91.6,41.2,91.5,41.1z"/>
				<path class="st0" d="M95.3,40.5H96l1.2,3.3h-0.7l-0.2-0.7H95l-0.2,0.7h-0.7L95.3,40.5z M95.2,42.5h0.8l-0.4-1.3L95.2,42.5z"/>
				<path class="st0" d="M101.5,40.6c0.1,0.1,0.2,0.1,0.3,0.2c0.1,0.1,0.1,0.2,0.2,0.3c0,0.1,0.1,0.2,0.1,0.3c0,0.2,0,0.3-0.1,0.5
					c-0.1,0.2-0.2,0.3-0.4,0.3c0.2,0.1,0.3,0.1,0.3,0.3c0.1,0.1,0.1,0.3,0.1,0.5v0.2c0,0.1,0,0.3,0,0.3c0,0.1,0.1,0.1,0.1,0.2v0.1
					h-0.8c0-0.1,0-0.1,0-0.2c0-0.1,0-0.2,0-0.3l0-0.3c0-0.2,0-0.3-0.1-0.4c-0.1-0.1-0.2-0.1-0.4-0.1h-0.7v1.3h-0.7v-3.3h1.6
					C101.2,40.5,101.4,40.5,101.5,40.6z M100.1,41v0.9h0.7c0.1,0,0.3,0,0.3-0.1c0.1-0.1,0.2-0.2,0.2-0.4c0-0.2-0.1-0.3-0.2-0.4
					c-0.1,0-0.2-0.1-0.3-0.1H100.1z"/>
				<path class="st0" d="M106.9,40.5V41h-1v2.7h-0.7V41h-1v-0.6H106.9z"/>
				<path class="st0" d="M109.1,40.5h0.7l1.3,2.3v-2.3h0.6v3.3h-0.7l-1.3-2.3v2.3h-0.6V40.5z"/>
				<path class="st0" d="M116.7,41h-1.7v0.7h1.6v0.6h-1.6v0.8h1.8v0.6h-2.5v-3.3h2.4V41z"/>
				<path class="st0" d="M121.2,40.6c0.1,0.1,0.2,0.1,0.3,0.2c0.1,0.1,0.1,0.2,0.2,0.3c0,0.1,0.1,0.2,0.1,0.3c0,0.2,0,0.3-0.1,0.5
					c-0.1,0.2-0.2,0.3-0.4,0.3c0.2,0.1,0.3,0.1,0.3,0.3c0.1,0.1,0.1,0.3,0.1,0.5v0.2c0,0.1,0,0.3,0,0.3c0,0.1,0.1,0.1,0.1,0.2v0.1
					H121c0-0.1,0-0.1,0-0.2c0-0.1,0-0.2,0-0.3l0-0.3c0-0.2,0-0.3-0.1-0.4c-0.1-0.1-0.2-0.1-0.4-0.1h-0.7v1.3h-0.7v-3.3h1.6
					C120.9,40.5,121.1,40.5,121.2,40.6z M119.8,41v0.9h0.7c0.1,0,0.3,0,0.3-0.1c0.1-0.1,0.2-0.2,0.2-0.4c0-0.2-0.1-0.3-0.2-0.4
					c-0.1,0-0.2-0.1-0.3-0.1H119.8z"/>
				<path class="st0" d="M129.5,42.3c-0.2,0.2-0.5,0.2-0.8,0.2H128v1.2h-0.7v-3.3h1.4c0.3,0,0.6,0.1,0.8,0.3
					c0.2,0.2,0.3,0.4,0.3,0.8C129.8,41.9,129.7,42.2,129.5,42.3z M129,41.1c-0.1-0.1-0.2-0.1-0.4-0.1H128v1h0.6c0.2,0,0.3,0,0.4-0.1
					c0.1-0.1,0.1-0.2,0.1-0.4S129.1,41.2,129,41.1z"/>
				<path class="st0" d="M134.2,40.6c0.1,0.1,0.2,0.1,0.3,0.2c0.1,0.1,0.1,0.2,0.2,0.3c0,0.1,0.1,0.2,0.1,0.3c0,0.2,0,0.3-0.1,0.5
					c-0.1,0.2-0.2,0.3-0.4,0.3c0.2,0.1,0.3,0.1,0.3,0.3c0.1,0.1,0.1,0.3,0.1,0.5v0.2c0,0.1,0,0.3,0,0.3c0,0.1,0.1,0.1,0.1,0.2v0.1
					h-0.8c0-0.1,0-0.1,0-0.2c0-0.1,0-0.2,0-0.3l0-0.3c0-0.2,0-0.3-0.1-0.4s-0.2-0.1-0.4-0.1h-0.7v1.3h-0.7v-3.3h1.6
					C134,40.5,134.1,40.5,134.2,40.6z M132.8,41v0.9h0.7c0.1,0,0.3,0,0.3-0.1c0.1-0.1,0.2-0.2,0.2-0.4c0-0.2-0.1-0.3-0.2-0.4
					c-0.1,0-0.2-0.1-0.3-0.1H132.8z"/>
				<path class="st0" d="M139.8,43.5c-0.2,0.3-0.6,0.4-1.1,0.4c-0.5,0-0.8-0.1-1.1-0.4c-0.3-0.3-0.5-0.8-0.5-1.4
					c0-0.6,0.2-1.1,0.5-1.4c0.2-0.3,0.6-0.4,1.1-0.4c0.5,0,0.8,0.1,1.1,0.4c0.3,0.3,0.5,0.8,0.5,1.4
					C140.3,42.7,140.1,43.1,139.8,43.5z M139.4,43c0.2-0.2,0.2-0.5,0.2-0.9c0-0.4-0.1-0.7-0.2-0.9c-0.2-0.2-0.4-0.3-0.6-0.3
					c-0.3,0-0.5,0.1-0.6,0.3c-0.2,0.2-0.2,0.5-0.2,0.9c0,0.4,0.1,0.7,0.2,0.9c0.2,0.2,0.4,0.3,0.6,0.3C139,43.3,139.2,43.2,139.4,43
					z"/>
				<path class="st0" d="M144.8,41.5c-0.1-0.2-0.2-0.4-0.4-0.5c-0.1,0-0.2-0.1-0.4-0.1c-0.3,0-0.5,0.1-0.6,0.3
					c-0.2,0.2-0.3,0.5-0.3,0.9c0,0.4,0.1,0.7,0.3,0.9c0.2,0.2,0.4,0.3,0.6,0.3c0.2,0,0.4-0.1,0.6-0.2c0.1-0.1,0.2-0.3,0.3-0.5h-0.8
					V42h1.4v1.8H145l-0.1-0.4c-0.1,0.2-0.3,0.3-0.4,0.3c-0.2,0.1-0.4,0.2-0.7,0.2c-0.4,0-0.8-0.2-1.1-0.5c-0.3-0.3-0.4-0.7-0.4-1.2
					c0-0.5,0.1-1,0.4-1.3c0.3-0.3,0.7-0.5,1.2-0.5c0.4,0,0.8,0.1,1,0.3c0.3,0.2,0.4,0.5,0.4,0.8H144.8z"/>
				<path class="st0" d="M150.1,40.6c0.1,0.1,0.2,0.1,0.3,0.2c0.1,0.1,0.1,0.2,0.2,0.3c0,0.1,0.1,0.2,0.1,0.3c0,0.2,0,0.3-0.1,0.5
					c-0.1,0.2-0.2,0.3-0.4,0.3c0.2,0.1,0.3,0.1,0.3,0.3c0.1,0.1,0.1,0.3,0.1,0.5v0.2c0,0.1,0,0.3,0,0.3c0,0.1,0.1,0.1,0.1,0.2v0.1
					h-0.8c0-0.1,0-0.1,0-0.2c0-0.1,0-0.2,0-0.3l0-0.3c0-0.2,0-0.3-0.1-0.4s-0.2-0.1-0.4-0.1h-0.7v1.3H148v-3.3h1.6
					C149.8,40.5,150,40.5,150.1,40.6z M148.7,41v0.9h0.7c0.1,0,0.3,0,0.3-0.1c0.1-0.1,0.2-0.2,0.2-0.4c0-0.2-0.1-0.3-0.2-0.4
					c-0.1,0-0.2-0.1-0.3-0.1H148.7z"/>
				<path class="st0" d="M154,40.5h0.8l1.2,3.3h-0.7l-0.2-0.7h-1.2l-0.2,0.7h-0.7L154,40.5z M154,42.5h0.8l-0.4-1.3L154,42.5z"/>
				<path class="st0" d="M160.4,40.5h1v3.3h-0.6v-2.2c0-0.1,0-0.2,0-0.3s0-0.2,0-0.3l-0.6,2.7h-0.7l-0.6-2.7c0,0.1,0,0.2,0,0.3
					s0,0.2,0,0.3v2.2h-0.6v-3.3h1l0.6,2.6L160.4,40.5z"/>
			</g>
			<linearGradient id="SVGID_5_" gradientUnits="userSpaceOnUse" x1="-20.2022" y1="26.8377" x2="22.451" y2="31.8559">
				<stop  offset="8.240920e-03" style="stop-color:#003399"/>
				<stop  offset="0.9059" style="stop-color:#000033"/>
			</linearGradient>
			<path class="st9" d="M0,46.3c0,2.1,1.7,3.8,3.8,3.8h14.8v0c10.1-0.1,18.2-8.8,18.2-19.5c0-10.7-8.1-19.4-18.2-19.5v0H3.8
				c-2.1,0-3.8,1.7-3.8,3.8V46.3z"/>
			<linearGradient id="SVGID_6_" gradientUnits="userSpaceOnUse" x1="3.6533" y1="28.8094" x2="36.8048" y2="22.0105">
				<stop  offset="0.2" style="stop-color:#03FCFC;stop-opacity:0.8"/>
				<stop  offset="0.3155" style="stop-color:#04F8F7;stop-opacity:0.8289"/>
				<stop  offset="0.4618" style="stop-color:#06EDE7;stop-opacity:0.8655"/>
				<stop  offset="0.6248" style="stop-color:#0BDACD;stop-opacity:0.9062"/>
				<stop  offset="0.7999" style="stop-color:#11C0A9;stop-opacity:0.95"/>
				<stop  offset="0.9828" style="stop-color:#189F7B;stop-opacity:0.9957"/>
				<stop  offset="1" style="stop-color:#199C76"/>
			</linearGradient>
			<path class="st10" d="M19.7,39.8c7.3,0,13.7-4,17-10c0,0,0-0.1,0-0.1c-0.4-10.3-8.4-18.5-18.2-18.6v0h-0.4
				c2.9,2.8,4.4,6.9,3.4,11.4c-1,4.5-4.5,8-9,9c-3.4,0.8-6.6,0.1-9.2-1.6C3.2,29.7,2.8,30,3,30.4C6.4,36,12.6,39.8,19.7,39.8z"/>
			<g class="st3">
				<linearGradient id="SVGID_7_" gradientUnits="userSpaceOnUse" x1="3.929" y1="24.3319" x2="31.6404" y2="36.2487">
					<stop  offset="0" style="stop-color:#112233"/>
					<stop  offset="1" style="stop-color:#191163"/>
				</linearGradient>
				<path class="st11" d="M18.6,11.1L18.6,11.1l-3.7,0c8.9,2,15.6,10,15.6,19.5c0,9.5-6.7,17.5-15.6,19.5h3.7v0
					c10.1-0.1,18.2-8.8,18.2-19.5C36.8,19.9,28.6,11.2,18.6,11.1z"/>
			</g>
			<path class="st0" d="M164.7,36.9H45.3c-0.2,0-0.3-0.1-0.3-0.3v-0.1c0-0.2,0.1-0.3,0.3-0.3h119.4c0.2,0,0.3,0.1,0.3,0.3v0.1
				C165,36.8,164.9,36.9,164.7,36.9z"/>
			<g>
				<path class="st6" d="M47.5,16.6c1.3-0.2,2.8-0.3,4.5-0.3c3,0,5.2,0.7,6.6,2c1.4,1.3,2.3,3.2,2.3,5.8c0,2.7-0.8,4.8-2.3,6.3
					c-1.5,1.5-4,2.3-7.2,2.3c-1.5,0-2.8-0.1-3.8-0.2V16.6z M49.6,31c0.5,0.1,1.3,0.1,2.1,0.1c4.5,0,6.9-2.5,6.9-6.9
					c0-3.8-2.2-6.3-6.6-6.3c-1.1,0-1.9,0.1-2.5,0.2V31z"/>
				<path class="st6" d="M67.7,17.6v3.4h3v1.6h-3v6.3c0,1.5,0.4,2.3,1.6,2.3c0.6,0,1-0.1,1.2-0.1l0.1,1.6c-0.4,0.2-1.1,0.3-1.9,0.3
					c-1,0-1.8-0.3-2.3-0.9c-0.6-0.6-0.8-1.7-0.8-3v-6.4h-1.8v-1.6h1.8v-2.8L67.7,17.6z"/>
				<path class="st6" d="M74.4,24.6c0-1.4,0-2.6-0.1-3.6h1.9l0.1,2.3h0.1c0.5-1.6,1.8-2.6,3.2-2.6c0.2,0,0.4,0,0.6,0.1v2
					c-0.2,0-0.4-0.1-0.7-0.1c-1.5,0-2.6,1.1-2.9,2.7c0,0.3-0.1,0.6-0.1,1v6.2h-2.1V24.6z"/>
				<path class="st6" d="M89.8,32.6l-0.2-1.5h-0.1c-0.7,0.9-1.9,1.7-3.6,1.7c-2.4,0-3.6-1.7-3.6-3.4c0-2.8,2.5-4.4,7-4.3V25
					c0-1-0.3-2.7-2.7-2.7c-1.1,0-2.2,0.3-3,0.9l-0.5-1.4c1-0.6,2.4-1,3.8-1c3.6,0,4.4,2.4,4.4,4.8v4.4c0,1,0,2,0.2,2.8H89.8z
					 M89.5,26.7c-2.3,0-5,0.4-5,2.6c0,1.4,0.9,2,2,2c1.5,0,2.5-1,2.8-2c0.1-0.2,0.1-0.5,0.1-0.7V26.7z"/>
				<path class="st6" d="M96.8,20.9l2.3,6.6c0.4,1.1,0.7,2,0.9,3h0.1c0.3-1,0.6-1.9,1-3l2.3-6.6h2.2L101,32.6h-2l-4.4-11.7H96.8z"/>
				<path class="st6" d="M109.8,27.2c0,2.9,1.9,4.1,4,4.1c1.5,0,2.4-0.3,3.2-0.6l0.4,1.5c-0.7,0.3-2,0.7-3.9,0.7
					c-3.6,0-5.8-2.4-5.8-5.9c0-3.5,2.1-6.3,5.5-6.3c3.8,0,4.8,3.4,4.8,5.5c0,0.4,0,0.8-0.1,1H109.8z M116,25.7
					c0-1.4-0.6-3.5-2.9-3.5c-2.2,0-3.1,2-3.3,3.5H116z"/>
				<path class="st6" d="M121.9,15.5h2.1v17.2h-2.1V15.5z"/>
				<path class="st6" d="M128.8,15.5h2.1v17.2h-2.1V15.5z"/>
				<path class="st6" d="M136.9,27.2c0,2.9,1.9,4.1,4,4.1c1.5,0,2.4-0.3,3.2-0.6l0.4,1.5c-0.7,0.3-2,0.7-3.9,0.7
					c-3.6,0-5.8-2.4-5.8-5.9c0-3.5,2.1-6.3,5.5-6.3c3.8,0,4.8,3.4,4.8,5.5c0,0.4,0,0.8-0.1,1H136.9z M143.2,25.7
					c0-1.4-0.6-3.5-2.9-3.5c-2.2,0-3.1,2-3.3,3.5H143.2z"/>
				<path class="st6" d="M149.1,24.6c0-1.4,0-2.6-0.1-3.6h1.9l0.1,2.3h0.1c0.5-1.6,1.8-2.6,3.2-2.6c0.2,0,0.4,0,0.6,0.1v2
					c-0.2,0-0.4-0.1-0.7-0.1c-1.5,0-2.6,1.1-2.9,2.7c0,0.3-0.1,0.6-0.1,1v6.2h-2.1V24.6z"/>
			</g>
		</g>
		<linearGradient id="SVGID_8_" gradientUnits="userSpaceOnUse" x1="14.2047" y1="21.4443" x2="31.4708" y2="17.9033">
			<stop  offset="0.2" style="stop-color:#03FCFC;stop-opacity:0.8"/>
			<stop  offset="0.3155" style="stop-color:#04F8F7;stop-opacity:0.8289"/>
			<stop  offset="0.4618" style="stop-color:#06EDE7;stop-opacity:0.8655"/>
			<stop  offset="0.6248" style="stop-color:#0BDACD;stop-opacity:0.9062"/>
			<stop  offset="0.7999" style="stop-color:#11C0A9;stop-opacity:0.95"/>
			<stop  offset="0.9828" style="stop-color:#189F7B;stop-opacity:0.9957"/>
			<stop  offset="1" style="stop-color:#199C76"/>
		</linearGradient>
		<path class="st12" d="M15.6,30.5c11-1.4,14.2-8.5,14.8-14.8c-3.2-2.8-7.2-4.5-11.7-4.6v0h-0.4c2.9,2.8,4.4,6.9,3.4,11.4
			C21,26,18.7,28.9,15.6,30.5z"/>
	</g>
</g>
</svg>
